<svg width="160" height="160" viewBox="0 0 160 160" fill="none" xmlns="http://www.w3.org/2000/svg">
<rect width="160" height="160" fill="#DCDCDC"/>
<path d="M-1386 -4398C-1386 -4508.46 -1296.46 -4598 -1186 -4598H7221C7331.46 -4598 7421 -4508.46 7421 -4398V3273C7421 3383.46 7331.46 3473 7221 3473H-1186C-1296.46 3473 -1386 3383.46 -1386 3273V-4398Z" fill="white" fill-opacity="0.3"/>
<path d="M-1186 -4597H7221V-4599H-1186V-4597ZM7420 -4398V3273H7422V-4398H7420ZM7221 3472H-1186V3474H7221V3472ZM-1385 3273V-4398H-1387V3273H-1385ZM-1186 3472C-1295.9 3472 -1385 3382.9 -1385 3273H-1387C-1387 3384.01 -1297.01 3474 -1186 3474V3472ZM7420 3273C7420 3382.9 7330.9 3472 7221 3472V3474C7332.01 3474 7422 3384.01 7422 3273H7420ZM7221 -4597C7330.91 -4597 7420 -4507.9 7420 -4398H7422C7422 -4509.01 7332.01 -4599 7221 -4599V-4597ZM-1186 -4599C-1297.01 -4599 -1387 -4509.01 -1387 -4398H-1385C-1385 -4507.9 -1295.9 -4597 -1186 -4597V-4599Z" fill="black" fill-opacity="0.1"/>
<g clip-path="url(#clip0_1_3)">
<rect width="1920" height="6178" transform="translate(-880 -4156)" fill="#FAF7F1"/>
<circle cx="80" cy="80" r="80" fill="#FFE3D5"/>
<mask id="mask0_1_3" style="mask-type:alpha" maskUnits="userSpaceOnUse" x="44" y="43" width="72" height="73">
<rect x="44" y="43.5481" width="72" height="72" fill="#D9D9D9"/>
</mask>
<g mask="url(#mask0_1_3)">
<path d="M77 109.398C73.2 108.998 69.6625 107.961 66.3875 106.286C63.1125 104.611 60.2625 102.436 57.8375 99.7607C55.4125 97.0857 53.5 94.0232 52.1 90.5732C50.7 87.1232 50 83.4482 50 79.5482C50 74.9982 50.9125 70.7982 52.7375 66.9482C54.5625 63.0982 57.05 59.7982 60.2 57.0482H53V51.0482H71V69.0482H65V60.8732C62.25 63.0732 60.0625 65.7857 58.4375 69.0107C56.8125 72.2357 56 75.7482 56 79.5482C56 85.6982 58.0125 91.0107 62.0375 95.4857C66.0625 99.9607 71.05 102.573 77 103.323V109.398ZM75.725 93.3482L63.05 80.5982L67.25 76.3982L75.725 84.8732L92.75 67.8482L96.95 72.1232L75.725 93.3482ZM89 108.048V90.0482H95V98.2232C97.75 95.9732 99.9375 93.2482 101.562 90.0482C103.188 86.8482 104 83.3482 104 79.5482C104 73.3982 101.987 68.0857 97.9625 63.6107C93.9375 59.1357 88.95 56.5232 83 55.7732V49.6982C90.6 50.4482 97 53.6482 102.2 59.2982C107.4 64.9482 110 71.6982 110 79.5482C110 84.0982 109.087 88.2982 107.262 92.1482C105.438 95.9982 102.95 99.2982 99.8 102.048H107V108.048H89Z" fill="#D74800"/>
</g>
</g>
<defs>
<clipPath id="clip0_1_3">
<rect width="1920" height="6178" fill="white" transform="translate(-880 -4156)"/>
</clipPath>
</defs>
</svg>
