<svg width="24" height="24" viewBox="0 0 24 24" fill="none" xmlns="http://www.w3.org/2000/svg">
<rect y="0.00195312" width="24" height="24" rx="5" fill="#F2EFE6"/>
<path fill-rule="evenodd" clip-rule="evenodd" d="M6 12.002C6 9.60519 6 8.40681 6.57113 7.54365C6.82616 7.15821 7.15626 6.82812 7.5417 6.57308C8.40486 6.00195 9.60324 6.00195 12 6.00195C14.3968 6.00195 15.5951 6.00195 16.4583 6.57308C16.8437 6.82812 17.1738 7.15821 17.4289 7.54365C18 8.40681 18 9.60519 18 12.002C18 14.3987 18 15.5971 17.4289 16.4603C17.1738 16.8457 16.8437 17.1758 16.4583 17.4308C15.5951 18.002 14.3968 18.002 12 18.002C9.60324 18.002 8.40486 18.002 7.5417 17.4308C7.15626 17.1758 6.82616 16.8457 6.57113 16.4603C6 15.5971 6 14.3987 6 12.002ZM15.1062 12.0021C15.1062 13.7177 13.7154 15.1084 11.9999 15.1084C10.2843 15.1084 8.89362 13.7177 8.89362 12.0021C8.89362 10.2866 10.2843 8.89583 11.9999 8.89583C13.7154 8.89583 15.1062 10.2866 15.1062 12.0021ZM11.9999 14.0574C13.135 14.0574 14.0552 13.1372 14.0552 12.0021C14.0552 10.867 13.135 9.94677 11.9999 9.94677C10.8648 9.94677 9.94456 10.867 9.94456 12.0021C9.94456 13.1372 10.8648 14.0574 11.9999 14.0574ZM15.2289 9.46965C15.632 9.46965 15.9587 9.14287 15.9587 8.73977C15.9587 8.33667 15.632 8.00989 15.2289 8.00989C14.8257 8.00989 14.499 8.33667 14.499 8.73977C14.499 9.14287 14.8257 9.46965 15.2289 9.46965Z" fill="#948A74"/>
</svg>
