<svg width="24" height="24" viewBox="0 0 24 24" fill="none" xmlns="http://www.w3.org/2000/svg">
<rect y="0.00195312" width="24" height="24" rx="5" fill="#F2EFE6"/>
<path d="M6 7.61516C6 7.23035 6.13514 6.91289 6.40541 6.66278C6.67567 6.41265 7.02703 6.2876 7.45946 6.2876C7.88417 6.2876 8.2278 6.41073 8.49035 6.65701C8.76061 6.91097 8.89575 7.24189 8.89575 7.64979C8.89575 8.0192 8.76448 8.32703 8.50193 8.57331C8.23166 8.82728 7.87645 8.95426 7.43629 8.95426H7.42471C7 8.95426 6.65637 8.82728 6.39382 8.57331C6.13127 8.31934 6 7.99995 6 7.61516ZM6.15058 17.7162V10.0048H8.72201V17.7162H6.15058ZM10.1467 17.7162H12.7181V13.4102C12.7181 13.1409 12.749 12.9331 12.8108 12.7869C12.9189 12.5252 13.083 12.3039 13.3031 12.1231C13.5232 11.9422 13.7992 11.8518 14.1313 11.8518C14.9961 11.8518 15.4286 12.4329 15.4286 13.595V17.7162H18V13.2948C18 12.1558 17.7297 11.2919 17.1892 10.7032C16.6486 10.1144 15.9344 9.82006 15.0463 9.82006C14.0502 9.82006 13.2741 10.2472 12.7181 11.1014V11.1245H12.7066L12.7181 11.1014V10.0048H10.1467C10.1622 10.251 10.1699 11.0168 10.1699 12.302C10.1699 13.5873 10.1622 15.392 10.1467 17.7162Z" fill="#948A74"/>
</svg>
