<svg width="160" height="160" viewBox="0 0 160 160" fill="none" xmlns="http://www.w3.org/2000/svg">
<rect width="160" height="160" fill="#DCDCDC"/>
<path d="M-1778 -4398C-1778 -4508.46 -1688.46 -4598 -1578 -4598H6829C6939.46 -4598 7029 -4508.46 7029 -4398V3273C7029 3383.46 6939.46 3473 6829 3473H-1578C-1688.46 3473 -1778 3383.46 -1778 3273V-4398Z" fill="white" fill-opacity="0.3"/>
<path d="M-1578 -4597H6829V-4599H-1578V-4597ZM7028 -4398V3273H7030V-4398H7028ZM6829 3472H-1578V3474H6829V3472ZM-1777 3273V-4398H-1779V3273H-1777ZM-1578 3472C-1687.9 3472 -1777 3382.9 -1777 3273H-1779C-1779 3384.01 -1689.01 3474 -1578 3474V3472ZM7028 3273C7028 3382.9 6938.9 3472 6829 3472V3474C6940.01 3474 7030 3384.01 7030 3273H7028ZM6829 -4597C6938.91 -4597 7028 -4507.9 7028 -4398H7030C7030 -4509.01 6940.01 -4599 6829 -4599V-4597ZM-1578 -4599C-1689.01 -4599 -1779 -4509.01 -1779 -4398H-1777C-1777 -4507.9 -1687.9 -4597 -1578 -4597V-4599Z" fill="black" fill-opacity="0.1"/>
<g clip-path="url(#clip0_1_3)">
<rect width="1920" height="6178" transform="translate(-1272 -4156)" fill="#FAF7F1"/>
<circle cx="80" cy="80" r="80" fill="#FFE3D5"/>
<mask id="mask0_1_3" style="mask-type:alpha" maskUnits="userSpaceOnUse" x="44" y="43" width="72" height="73">
<rect x="44" y="43.5481" width="72" height="72" fill="#D9D9D9"/>
</mask>
<g mask="url(#mask0_1_3)">
<path d="M56 97.5481V73.5481V74.5231V61.5481V97.5481ZM97.7 105.048L87.2 94.5481C86.55 93.8981 86.0875 93.1981 85.8125 92.4481C85.5375 91.6981 85.4 90.9481 85.4 90.1981C85.4 88.5981 85.975 87.1731 87.125 85.9231C88.275 84.6731 89.75 84.0481 91.55 84.0481C92.95 84.0481 94.05 84.3731 94.85 85.0231C95.65 85.6731 96.6 86.5481 97.7 87.6481C98.7 86.6481 99.6125 85.7981 100.438 85.0981C101.263 84.3981 102.4 84.0481 103.85 84.0481C105.7 84.0481 107.188 84.6856 108.312 85.9606C109.438 87.2356 110 88.6731 110 90.2731C110 91.0231 109.85 91.7731 109.55 92.5231C109.25 93.2731 108.8 93.9481 108.2 94.5481L97.7 105.048ZM56 67.5481H104V61.5481H56V67.5481ZM78.725 103.548H56C54.35 103.548 52.9375 102.961 51.7625 101.786C50.5875 100.611 50 99.1981 50 97.5481V61.5481C50 59.8981 50.5875 58.4856 51.7625 57.3106C52.9375 56.1356 54.35 55.5481 56 55.5481H104C105.65 55.5481 107.062 56.1356 108.238 57.3106C109.413 58.4856 110 59.8981 110 61.5481V77.5231C108.25 76.2731 106.337 75.2981 104.262 74.5981C102.188 73.8981 100 73.5481 97.7 73.5481C94.85 73.5481 92.1625 74.0856 89.6375 75.1606C87.1125 76.2356 84.9 77.6981 83 79.5481H56V97.5481H76.925C77.075 98.5981 77.3 99.6231 77.6 100.623C77.9 101.623 78.275 102.598 78.725 103.548Z" fill="#D74800"/>
</g>
</g>
<defs>
<clipPath id="clip0_1_3">
<rect width="1920" height="6178" fill="white" transform="translate(-1272 -4156)"/>
</clipPath>
</defs>
</svg>
