<svg width="50" height="50" viewBox="0 0 50 50" fill="none" xmlns="http://www.w3.org/2000/svg">
<circle cx="25" cy="25" r="25" fill="#FAF7F1"/>
<path d="M32.6 34L26.3 27.7C25.8 28.1 25.225 28.4167 24.575 28.65C23.925 28.8833 23.2333 29 22.5 29C20.6833 29 19.1458 28.3708 17.8875 27.1125C16.6292 25.8542 16 24.3167 16 22.5C16 20.6833 16.6292 19.1458 17.8875 17.8875C19.1458 16.6292 20.6833 16 22.5 16C24.3167 16 25.8542 16.6292 27.1125 17.8875C28.3708 19.1458 29 20.6833 29 22.5C29 23.2333 28.8833 23.925 28.65 24.575C28.4167 25.225 28.1 25.8 27.7 26.3L34 32.6L32.6 34ZM22.5 27C23.75 27 24.8125 26.5625 25.6875 25.6875C26.5625 24.8125 27 23.75 27 22.5C27 21.25 26.5625 20.1875 25.6875 19.3125C24.8125 18.4375 23.75 18 22.5 18C21.25 18 20.1875 18.4375 19.3125 19.3125C18.4375 20.1875 18 21.25 18 22.5C18 23.75 18.4375 24.8125 19.3125 25.6875C20.1875 26.5625 21.25 27 22.5 27Z" fill="#505050"/>
</svg>
