<svg width="50" height="50" viewBox="0 0 50 50" fill="none" xmlns="http://www.w3.org/2000/svg">
<circle cx="25" cy="25" r="25" fill="#FAF7F1"/>
<mask id="mask0_550_165" style="mask-type:alpha" maskUnits="userSpaceOnUse" x="13" y="13" width="24" height="24">
<rect x="13" y="13" width="24" height="24" fill="#D9D9D9"/>
</mask>
<g mask="url(#mask0_550_165)">
<path d="M20 35C19.45 35 18.9792 34.8042 18.5875 34.4125C18.1958 34.0208 18 33.55 18 33C18 32.45 18.1958 31.9792 18.5875 31.5875C18.9792 31.1958 19.45 31 20 31C20.55 31 21.0208 31.1958 21.4125 31.5875C21.8042 31.9792 22 32.45 22 33C22 33.55 21.8042 34.0208 21.4125 34.4125C21.0208 34.8042 20.55 35 20 35ZM30 35C29.45 35 28.9792 34.8042 28.5875 34.4125C28.1958 34.0208 28 33.55 28 33C28 32.45 28.1958 31.9792 28.5875 31.5875C28.9792 31.1958 29.45 31 30 31C30.55 31 31.0208 31.1958 31.4125 31.5875C31.8042 31.9792 32 32.45 32 33C32 33.55 31.8042 34.0208 31.4125 34.4125C31.0208 34.8042 30.55 35 30 35ZM19.15 19L21.55 24H28.55L31.3 19H19.15ZM18.2 17H32.95C33.3333 17 33.625 17.1708 33.825 17.5125C34.025 17.8542 34.0333 18.2 33.85 18.55L30.3 24.95C30.1167 25.2833 29.8708 25.5417 29.5625 25.725C29.2542 25.9083 28.9167 26 28.55 26H21.1L20 28H32V30H20C19.25 30 18.6833 29.6708 18.3 29.0125C17.9167 28.3542 17.9 27.7 18.25 27.05L19.6 24.6L16 17H14V15H17.25L18.2 17Z" fill="#505050"/>
</g>
</svg>
