<svg width="19" height="20" viewBox="0 0 19 20" fill="none" xmlns="http://www.w3.org/2000/svg">
<g id="Star">
<g id="Iconly/Bold/Star">
<g id="Star_2">
<path id="Vector" d="M14.1474 11.6387C13.9502 11.8298 13.8595 12.1063 13.9045 12.3774L14.5815 16.1246C14.6386 16.4422 14.5046 16.7636 14.2388 16.9471C13.9783 17.1375 13.6318 17.1604 13.3477 17.0081L9.97455 15.2487C9.85726 15.1863 9.72703 15.1528 9.59375 15.149H9.38735C9.31576 15.1596 9.24569 15.1825 9.18171 15.2175L5.80778 16.9852C5.64099 17.069 5.45211 17.0987 5.26704 17.069C4.81617 16.9837 4.51533 16.5541 4.58921 16.101L5.26704 12.3538C5.31197 12.0804 5.22134 11.8024 5.02409 11.6082L2.27391 8.94254C2.04391 8.71939 1.96394 8.38428 2.06904 8.08191C2.1711 7.78031 2.43157 7.56021 2.74611 7.5107L6.53131 6.96158C6.8192 6.93187 7.07205 6.7567 7.20153 6.49775L8.86945 3.07809C8.90906 3.00193 8.96009 2.93186 9.02178 2.87245L9.09032 2.81914C9.12612 2.77954 9.16724 2.74679 9.21294 2.72013L9.29596 2.68967L9.42543 2.63635H9.74607C10.0324 2.66606 10.2845 2.83742 10.4163 3.09332L12.1063 6.49775C12.2282 6.7468 12.465 6.91969 12.7384 6.96158L16.5236 7.5107C16.8435 7.5564 17.1108 7.77727 17.2167 8.08191C17.3165 8.38732 17.2304 8.72243 16.9958 8.94254L14.1474 11.6387Z" fill="#FFC700"/>
</g>
</g>
</g>
</svg>
