<svg width="160" height="160" viewBox="0 0 160 160" fill="none" xmlns="http://www.w3.org/2000/svg">
<rect width="160" height="160" fill="#DCDCDC"/>
<path d="M-994 -4398C-994 -4508.46 -904.457 -4598 -794 -4598H7613C7723.46 -4598 7813 -4508.46 7813 -4398V3273C7813 3383.46 7723.46 3473 7613 3473H-794C-904.457 3473 -994 3383.46 -994 3273V-4398Z" fill="white" fill-opacity="0.3"/>
<path d="M-794 -4597H7613V-4599H-794V-4597ZM7812 -4398V3273H7814V-4398H7812ZM7613 3472H-794V3474H7613V3472ZM-993 3273V-4398H-995V3273H-993ZM-794 3472C-903.905 3472 -993 3382.9 -993 3273H-995C-995 3384.01 -905.009 3474 -794 3474V3472ZM7812 3273C7812 3382.9 7722.9 3472 7613 3472V3474C7724.01 3474 7814 3384.01 7814 3273H7812ZM7613 -4597C7722.91 -4597 7812 -4507.9 7812 -4398H7814C7814 -4509.01 7724.01 -4599 7613 -4599V-4597ZM-794 -4599C-905.009 -4599 -995 -4509.01 -995 -4398H-993C-993 -4507.9 -903.905 -4597 -794 -4597V-4599Z" fill="black" fill-opacity="0.1"/>
<g clip-path="url(#clip0_1_3)">
<rect width="1920" height="6178" transform="translate(-488 -4156)" fill="#FAF7F1"/>
<circle cx="80" cy="80" r="80" fill="#FFE3D5"/>
<mask id="mask0_1_3" style="mask-type:alpha" maskUnits="userSpaceOnUse" x="44" y="43" width="72" height="73">
<rect x="44" y="43.5481" width="72" height="72" fill="#D9D9D9"/>
</mask>
<g mask="url(#mask0_1_3)">
<path d="M69.8 111.048L64.1 101.448L53.3 99.0481L54.35 87.9481L47 79.5481L54.35 71.1481L53.3 60.0481L64.1 57.6481L69.8 48.0481L80 52.3981L90.2 48.0481L95.9 57.6481L106.7 60.0481L105.65 71.1481L113 79.5481L105.65 87.9481L106.7 99.0481L95.9 101.448L90.2 111.048L80 106.698L69.8 111.048ZM72.35 103.398L80 100.098L87.8 103.398L92 96.1981L100.25 94.2481L99.5 85.8481L105.05 79.5481L99.5 73.0981L100.25 64.6981L92 62.8981L87.65 55.6981L80 58.9981L72.2 55.6981L68 62.8981L59.75 64.6981L60.5 73.0981L54.95 79.5481L60.5 85.8481L59.75 94.3981L68 96.1981L72.35 103.398ZM76.85 90.1981L93.8 73.2481L89.6 68.8981L76.85 81.6481L70.4 75.3481L66.2 79.5481L76.85 90.1981Z" fill="#D74800"/>
</g>
</g>
<defs>
<clipPath id="clip0_1_3">
<rect width="1920" height="6178" fill="white" transform="translate(-488 -4156)"/>
</clipPath>
</defs>
</svg>
