<svg width="24" height="24" viewBox="0 0 24 24" fill="none" xmlns="http://www.w3.org/2000/svg">
<rect y="0.00195312" width="24" height="24" rx="5" fill="#F2EFE6"/>
<path d="M14.018 7.13595V7.13379H14.5807L14.7863 7.17485C14.9234 7.20151 15.0478 7.23644 15.1596 7.27966C15.2714 7.32289 15.3796 7.37332 15.4842 7.43094C15.5888 7.48857 15.6837 7.54729 15.7688 7.60707C15.8532 7.66615 15.929 7.72882 15.996 7.79509C16.0624 7.86209 16.1659 7.87938 16.3066 7.84696C16.4473 7.81454 16.5987 7.76952 16.761 7.71189C16.9234 7.65426 17.0839 7.58943 17.2426 7.51739C17.4013 7.44535 17.4979 7.39961 17.5326 7.38016C17.5665 7.35999 17.5845 7.34919 17.5867 7.34774L17.5888 7.3445L17.5996 7.3391L17.6105 7.33369L17.6213 7.32829L17.6321 7.32289L17.6343 7.31965L17.6375 7.31748L17.6408 7.31532L17.6429 7.31208L17.6537 7.30884L17.6646 7.30668L17.6624 7.32289L17.6592 7.3391L17.6537 7.3553L17.6483 7.37151L17.6429 7.38232L17.6375 7.39312L17.6321 7.40933C17.6285 7.42014 17.6249 7.43454 17.6213 7.45255C17.6177 7.47057 17.5834 7.5426 17.5185 7.66867C17.4536 7.79474 17.3724 7.9226 17.275 8.05227C17.1776 8.18193 17.0904 8.2799 17.0132 8.34618C16.9353 8.41317 16.8837 8.45999 16.8584 8.48665C16.8332 8.51402 16.8025 8.53923 16.7665 8.56229L16.7124 8.59795L16.7015 8.60335L16.6907 8.60875L16.6886 8.612L16.6853 8.61416L16.6821 8.61632L16.6799 8.61956L16.6691 8.62496L16.6583 8.63037L16.6561 8.63361L16.6528 8.63577L16.6496 8.63793L16.6474 8.64117L16.6453 8.64441L16.642 8.64657L16.6388 8.64873L16.6366 8.65198H16.6907L16.9937 8.58714C17.1957 8.54392 17.3886 8.4917 17.5726 8.43046L17.8647 8.33321L17.8972 8.32241L17.9134 8.317L17.9243 8.3116L17.9351 8.3062L17.9459 8.30079L17.9567 8.29539L17.9784 8.29215L18 8.28999V8.3116L17.9946 8.31376L17.9892 8.317L17.987 8.32024L17.9838 8.32241L17.9805 8.32457L17.9784 8.32781L17.9762 8.33105L17.9729 8.33321L17.9697 8.33537L17.9675 8.33861L17.9654 8.34186L17.9621 8.34402L17.9567 8.35482L17.9513 8.36563L17.9481 8.36779C17.9466 8.36995 17.9008 8.43117 17.8106 8.55148C17.7205 8.67251 17.6718 8.73373 17.6646 8.73518C17.6574 8.73734 17.6472 8.74815 17.6343 8.7676C17.622 8.78776 17.5455 8.86809 17.4049 9.00856C17.2642 9.14903 17.1264 9.27401 16.9915 9.38352C16.8559 9.49373 16.7874 9.62916 16.7859 9.78981C16.7838 9.94973 16.7755 10.1306 16.761 10.3322C16.7466 10.534 16.7196 10.7519 16.6799 10.986C16.6402 11.2201 16.5789 11.4848 16.4959 11.7802C16.413 12.0755 16.312 12.3637 16.193 12.6446C16.0739 12.9256 15.9495 13.1777 15.8197 13.401C15.6898 13.6244 15.5708 13.8135 15.4626 13.9683C15.3544 14.1232 15.2444 14.2691 15.1326 14.406C15.0207 14.5428 14.8794 14.697 14.7084 14.8684C14.5367 15.0392 14.4429 15.1328 14.4271 15.1494C14.4105 15.1652 14.3398 15.2243 14.215 15.3266C14.0909 15.4296 13.9574 15.5326 13.8146 15.6356C13.6725 15.7379 13.5419 15.8233 13.4229 15.8917C13.3039 15.9602 13.1603 16.0383 12.9922 16.1262C12.8249 16.2148 12.6438 16.2969 12.4491 16.3726C12.2543 16.4482 12.0487 16.5185 11.8323 16.5833C11.6159 16.6481 11.4067 16.6986 11.2047 16.7346C11.0027 16.7706 10.7737 16.8012 10.5176 16.8264L10.1335 16.8642V16.8696H9.43012V16.8642L9.33814 16.8588C9.27683 16.8552 9.22633 16.8516 9.18665 16.848C9.14699 16.8444 8.99729 16.8246 8.7376 16.7886C8.47791 16.7526 8.27412 16.7166 8.12624 16.6805C7.97837 16.6445 7.75834 16.5761 7.46619 16.4752C7.17403 16.3744 6.92408 16.2724 6.71632 16.1694C6.50929 16.0671 6.37944 16.0023 6.32678 15.9749C6.27484 15.9483 6.21641 15.9151 6.15149 15.8755L6.0541 15.8161L6.05195 15.8128L6.04869 15.8107L6.04545 15.8085L6.04328 15.8053L6.03246 15.7999L6.02164 15.7945L6.01949 15.7912L6.01623 15.7891L6.01298 15.7869L6.01082 15.7837L6.00867 15.7804L6.00541 15.7783H6V15.7567L6.01082 15.7588L6.02164 15.7621L6.07033 15.7675C6.1028 15.7711 6.19117 15.7765 6.33544 15.7837C6.47972 15.7909 6.633 15.7909 6.79531 15.7837C6.95762 15.7765 7.12354 15.7603 7.29306 15.7351C7.46258 15.7098 7.66276 15.6666 7.8936 15.6054C8.12444 15.5441 8.33653 15.4714 8.52986 15.3871C8.72246 15.3021 8.85952 15.2387 8.94104 15.1969C9.02183 15.1559 9.14518 15.0795 9.31109 14.9679L9.55996 14.8004L9.56213 14.7971L9.56537 14.795L9.56863 14.7928L9.57078 14.7896L9.57295 14.7863L9.57619 14.7842L9.57945 14.782L9.58161 14.7788L9.59243 14.7755L9.60325 14.7734L9.60541 14.7625L9.60866 14.7517L9.61191 14.7496L9.61407 14.7463L9.5275 14.7409C9.4698 14.7373 9.41389 14.7337 9.35978 14.7301C9.30568 14.7265 9.22092 14.7103 9.1055 14.6815C8.99009 14.6527 8.86565 14.6095 8.73219 14.5518C8.59874 14.4942 8.46889 14.4258 8.34265 14.3465C8.21642 14.2673 8.12516 14.2014 8.06889 14.1488C8.01335 14.0969 7.94121 14.0234 7.85248 13.9284C7.76448 13.8326 7.68801 13.7342 7.62308 13.6334C7.55816 13.5325 7.49613 13.4162 7.43698 13.2843L7.34716 13.0877L7.34175 13.0715L7.33634 13.0553L7.33309 13.0445L7.33093 13.0336L7.34716 13.0358L7.36339 13.0391L7.48242 13.0553C7.56177 13.0661 7.68621 13.0697 7.85573 13.0661C8.02525 13.0625 8.14247 13.0553 8.20739 13.0445C8.27232 13.0336 8.312 13.0264 8.32642 13.0228L8.34806 13.0174L8.37511 13.012L8.40216 13.0066L8.40433 13.0034L8.40757 13.0012L8.41083 12.9991L8.41298 12.9958L8.39134 12.9904L8.3697 12.985L8.34806 12.9796L8.32642 12.9742L8.30478 12.9688C8.29036 12.9652 8.26511 12.958 8.22904 12.9472C8.19297 12.9364 8.09559 12.8968 7.93688 12.8283C7.77819 12.7599 7.65194 12.6933 7.55816 12.6284C7.46415 12.5634 7.3745 12.4923 7.28981 12.4156C7.20541 12.3378 7.11272 12.2376 7.01172 12.1152C6.91073 11.9927 6.82057 11.8504 6.74121 11.6884C6.66186 11.5263 6.60235 11.3714 6.56267 11.2237C6.52315 11.0769 6.49708 10.9268 6.48477 10.7753L6.46528 10.5484L6.4761 10.5505L6.48693 10.5538L6.49775 10.5592L6.50857 10.5646L6.51939 10.57L6.53021 10.5754L6.69793 10.651C6.80975 10.7014 6.94861 10.7447 7.11452 10.7807C7.28044 10.8167 7.37962 10.8365 7.41208 10.8401L7.46078 10.8455H7.55816L7.55601 10.8423L7.55275 10.8401L7.5495 10.8379L7.54734 10.8347L7.54519 10.8315L7.54193 10.8293L7.53868 10.8271L7.53652 10.8239L7.5257 10.8185L7.51488 10.8131L7.51272 10.8099L7.50947 10.8077L7.50622 10.8055L7.50406 10.8023L7.49324 10.7969L7.48242 10.7915L7.48026 10.7882C7.4781 10.7868 7.44708 10.7637 7.3872 10.7191C7.32804 10.6737 7.26601 10.615 7.20108 10.543C7.13616 10.4709 7.07124 10.3953 7.00631 10.316C6.94127 10.2366 6.88334 10.1516 6.83318 10.0621C6.78269 9.97206 6.72931 9.85751 6.67304 9.71849C6.6175 9.58018 6.5753 9.44079 6.54644 9.30031C6.51759 9.15984 6.50136 9.02117 6.49775 8.8843C6.49414 8.74742 6.49775 8.63037 6.50857 8.53311C6.51939 8.43586 6.54103 8.326 6.57349 8.20354C6.60595 8.08108 6.65285 7.95142 6.71416 7.81454L6.80613 7.60924L6.81154 7.59303L6.81695 7.57682L6.82021 7.57466L6.82236 7.57142L6.82453 7.56817L6.82777 7.56601L6.83103 7.56817L6.83318 7.57142L6.83535 7.57466L6.83859 7.57682L6.84185 7.57898L6.844 7.58222L6.84617 7.58546L6.84941 7.58762L6.85482 7.59843L6.86023 7.60924L6.86349 7.6114L6.86564 7.61464L7.01172 7.77672C7.10911 7.88478 7.22453 8.00544 7.35798 8.13871C7.49144 8.27198 7.56538 8.34113 7.5798 8.34618C7.59424 8.35194 7.61226 8.3685 7.6339 8.39588C7.65555 8.42254 7.72769 8.48629 7.85032 8.58714C7.97296 8.68799 8.13346 8.80506 8.33183 8.93832C8.53021 9.07159 8.75023 9.20306 8.99188 9.33273C9.23355 9.4624 9.49324 9.57945 9.77096 9.68391C10.0487 9.78837 10.2435 9.8568 10.3553 9.88922C10.4671 9.92163 10.6583 9.96305 10.9288 10.0135C11.1993 10.0639 11.4031 10.0963 11.5401 10.1107C11.6772 10.1251 11.771 10.1334 11.8215 10.1356L11.8972 10.1377L11.8951 10.1215L11.8918 10.1053L11.8702 9.97026C11.8557 9.88022 11.8485 9.75415 11.8485 9.59206C11.8485 9.42998 11.8611 9.28051 11.8864 9.14363C11.9116 9.00676 11.9495 8.86809 12 8.72762C12.0505 8.58714 12.0999 8.4744 12.1482 8.3894C12.1973 8.30512 12.2615 8.20895 12.3408 8.10089C12.4202 7.99283 12.523 7.88118 12.6492 7.76592C12.7755 7.65065 12.9197 7.548 13.0821 7.45796C13.2444 7.36791 13.3941 7.29947 13.5311 7.25265C13.6682 7.20583 13.7836 7.17521 13.8774 7.1608C13.9711 7.1464 14.018 7.13811 14.018 7.13595Z" fill="#948A74"/>
</svg>
