<svg width="24" height="24" viewBox="0 0 24 24" fill="none" xmlns="http://www.w3.org/2000/svg">
<rect y="0.00195312" width="24" height="24" rx="5" fill="#F2EFE6"/>
<path d="M12.2925 16.6552L9.58433 16.6046C8.7075 16.587 7.82849 16.6222 6.96885 16.4395C5.66114 16.1665 5.5685 14.8279 5.47156 13.705C5.33798 12.1265 5.38969 10.5193 5.64176 8.95388C5.78407 8.07553 6.34409 7.55142 7.21014 7.49438C10.1337 7.2874 13.0767 7.31193 15.9938 7.4085C16.3019 7.41735 16.6121 7.46573 16.9159 7.52081C18.4154 7.78942 18.452 9.30635 18.5492 10.5833C18.6461 11.8735 18.6052 13.1702 18.4199 14.4516C18.2713 15.5125 17.9868 16.4022 16.7866 16.4881C15.2828 16.6004 13.8134 16.6908 12.3054 16.6621C12.3054 16.6552 12.2968 16.6552 12.2925 16.6552ZM10.7003 13.9693C11.8336 13.3043 12.9453 12.6505 14.072 11.99C12.9367 11.325 11.8271 10.6712 10.7003 10.0107V13.9693Z" fill="#948A74"/>
</svg>
